<svg width="621" height="174" viewBox="0 0 621 174" fill="none" xmlns="http://www.w3.org/2000/svg">
<g clip-path="url(#clip0_2_5)">
<path d="M242.673 79.7527L273.007 0H251.352L233.916 46.1094V0H211.887L179.215 86.3761H201.059L217.956 41.1774V86.2815L90.0256 119.907C70.3878 125.135 54.4817 124.39 45.5053 117.861C22.3018 100.888 40.0708 67.1387 46.2528 56.8843C35.016 69.3682 23.607 81.6865 14.8145 95.2881C1.16296 116.371 -4.82924 139.671 4.52097 154.591C21.3585 181.439 61.5715 168.956 87.2015 158.128L325.347 57.9961L242.667 79.7468L242.673 79.7527ZM183.231 58.002L205.26 0H181.754L160.283 56.7187C158.082 62.5792 155.317 65.5006 150.909 65.5006C145.403 65.5006 146.874 60.3852 148.334 56.7187L169.846 0H146.346L126.145 52.8807C116.771 77.405 126.519 88.0142 143.582 88.0142C163.593 88.0142 175.524 78.3038 183.231 58.002ZM130.737 28.9005C137.156 12.0759 127.972 0 108.524 0H85.0242L52.3577 86.3584H75.8579L88.5305 52.6973L93.609 86.3584H116.403L110.185 50.5033C118.248 47.3986 127.059 38.0549 130.737 28.9005ZM107.961 29.0838C105.76 35.2991 100.438 40.0597 92.9149 40.0597L100.628 19.3852C107.967 19.3852 110.002 23.5899 107.967 29.0779" fill="black"/>
<path d="M214.735 159.399H224.34C224.458 165.064 228.208 166.288 233.358 166.288C238.045 166.288 240.448 164.597 240.448 161.498C240.448 158.695 238.691 157.589 232.948 156.537L229.549 155.892C220.762 154.372 215.607 150.404 215.607 142.87C215.607 135.803 220.994 130.552 231.892 130.552C242.791 130.552 248.938 135.573 249.288 144.094H239.914C239.676 140.238 237.629 138.257 232.064 138.257C227.728 138.257 225.681 139.836 225.681 142.462C225.681 145.383 227.615 146.548 232.77 147.542L236.283 148.187C246.297 149.996 250.694 153.793 250.694 160.854C250.694 169.612 243.663 173.988 233.002 173.988C221.112 173.988 214.788 168.382 214.729 159.393L214.735 159.399Z" fill="black"/>
<path d="M273.191 173.066C272.782 172.309 272.491 171.02 272.432 169.677C270.498 172.244 267.217 173.763 262.767 173.763C256.443 173.763 251.756 170.552 251.756 164.538C251.756 159.34 254.859 155.898 263.586 155.135L268.332 154.727C270.907 154.437 272.254 153.675 272.254 151.747C272.254 149.937 271.257 148.713 267.626 148.713C263.995 148.713 262.589 149.588 262.298 152.681H253.221C253.69 146.022 257.967 142.231 267.691 142.231C277.415 142.231 281.165 145.791 281.165 151.516V167.513C281.165 169.73 281.574 171.889 282.393 173.06H273.197L273.191 173.066ZM262.18 139.493H256.615C256.615 133.716 259.427 131.439 262.88 131.439C264.873 131.439 266.57 132.083 267.917 132.604C269.145 133.13 270.26 133.538 271.429 133.538C272.485 133.538 273.013 132.953 273.067 131.439H278.632C278.632 137.163 275.819 139.493 272.366 139.493C270.492 139.493 268.854 138.849 267.27 138.269C266.101 137.802 264.867 137.335 263.817 137.335C262.767 137.335 262.233 137.979 262.18 139.493ZM272.254 161.209V158.991C271.607 159.689 270.616 159.984 269.21 160.156L265.461 160.564C262.358 160.913 261.07 162.084 261.07 164.183C261.07 166.283 262.654 167.625 265.52 167.625C269.032 167.625 272.254 165.934 272.254 161.203V161.209Z" fill="black"/>
<path d="M282.737 157.997C282.737 148.423 288.949 142.231 298.614 142.231C308.278 142.231 314.431 148.417 314.431 157.997C314.431 167.578 308.219 173.764 298.614 173.764C289.008 173.764 282.737 167.578 282.737 157.997ZM305.169 157.997C305.169 152.273 302.648 149.529 298.608 149.529C294.567 149.529 291.986 152.273 291.986 157.997C291.986 163.722 294.508 166.466 298.608 166.466C302.707 166.466 305.169 163.722 305.169 157.997Z" fill="black"/>
<path d="M363.507 145.508C363.507 153.917 357.942 159.523 348.1 159.523H339.022V173.066H329.12V131.498H348.1C357.942 131.498 363.507 137.104 363.507 145.508ZM353.611 145.508C353.611 141.829 351.268 139.842 347.459 139.842H339.022V151.167H347.459C351.268 151.167 353.611 149.239 353.611 145.502V145.508Z" fill="black"/>
<path d="M383.774 173.066C383.365 172.309 383.074 171.02 383.015 169.677C381.08 172.244 377.8 173.764 373.35 173.764C367.025 173.764 362.339 170.552 362.339 164.538C362.339 159.34 365.441 155.898 374.169 155.135L378.915 154.727C381.49 154.437 382.837 153.675 382.837 151.747C382.837 149.937 381.84 148.713 378.209 148.713C374.578 148.713 373.172 149.588 372.881 152.681H363.804C364.273 146.022 368.55 142.231 378.274 142.231C387.998 142.231 391.748 145.792 391.748 151.516V167.513C391.748 169.73 392.157 171.889 392.976 173.06H383.78L383.774 173.066ZM382.843 161.209V158.991C382.196 159.689 381.205 159.985 379.799 160.156L376.049 160.564C372.947 160.913 371.659 162.084 371.659 164.183C371.659 166.283 373.243 167.625 376.109 167.625C379.621 167.625 382.843 165.934 382.843 161.203V161.209Z" fill="black"/>
<path d="M423.489 142.935V173.06H414.583V168.796C412.59 171.599 409.546 173.758 405.097 173.758C399.122 173.758 394.613 170.138 394.613 162.663V142.929H403.75V160.854C403.75 164.183 405.215 165.993 408.609 165.993C411.421 165.993 414.352 164.183 414.352 159.748V142.935H423.489Z" fill="black"/>
<path d="M427.007 131.492H436.143V173.06H427.007V131.492Z" fill="black"/>
<path d="M438.487 157.997C438.487 148.423 444.699 142.231 454.363 142.231C464.028 142.231 470.18 148.417 470.18 157.997C470.18 167.578 463.969 173.764 454.363 173.764C444.758 173.764 438.487 167.578 438.487 157.997ZM460.919 157.997C460.919 152.273 458.398 149.529 454.357 149.529C450.317 149.529 447.736 152.273 447.736 157.997C447.736 163.722 450.258 166.466 454.357 166.466C458.457 166.466 460.919 163.722 460.919 157.997Z" fill="black"/>
<path d="M515.858 164.887V173.06H483.642L483.873 169.381C484.164 163.657 485.28 156.418 496.113 152.214L499.394 150.753C503.903 148.884 505.659 147.016 505.659 143.923C505.659 140.593 503.553 138.725 499.803 138.725C495.704 138.725 493.538 140.771 493.538 145.383H484.105C484.046 136.625 488.91 130.552 500.035 130.552C509.877 130.552 515.496 135.921 515.496 142.988C515.496 150.463 511.218 154.142 503.488 157.643L500.035 159.275C496.694 160.854 495.057 162.078 494.76 164.881H515.846L515.858 164.887Z" fill="black"/>
<path d="M517.092 152.279C517.092 138.5 523.125 130.558 534.896 130.558C546.667 130.558 552.641 138.5 552.641 152.279C552.641 166.058 546.667 174 534.896 174C523.125 174 517.092 166.058 517.092 152.279ZM542.336 152.279C542.336 142.409 539.643 138.736 534.896 138.736C530.15 138.736 527.397 142.415 527.397 152.279C527.397 162.143 530.091 165.821 534.896 165.821C539.702 165.821 542.336 162.143 542.336 152.279Z" fill="black"/>
<path d="M585.854 164.887V173.06H553.638L553.87 169.381C554.16 163.657 555.276 156.418 566.109 152.214L569.39 150.753C573.899 148.884 575.655 147.016 575.655 143.923C575.655 140.593 573.549 138.725 569.799 138.725C565.7 138.725 563.534 140.771 563.534 145.383H554.101C554.042 136.625 558.907 130.552 570.031 130.552C579.873 130.552 585.492 135.921 585.492 142.988C585.492 150.463 581.214 154.142 573.484 157.643L570.031 159.275C566.691 160.854 565.053 162.078 564.756 164.881H585.842L585.854 164.887Z" fill="black"/>
<path d="M621 164.012H615.554V173.06H605.652V164.012H585.794V154.727L604.655 131.492H615.548V155.898H620.994V164.012H621ZM594.059 155.898H605.948V141.244L594.059 155.898Z" fill="black"/>
</g>
<defs>
<clipPath id="clip0_2_5">
<rect width="621" height="174" fill="white"/>
</clipPath>
</defs>
</svg>
